<svg width="16" height="17" viewBox="0 0 16 17" fill="none" xmlns="http://www.w3.org/2000/svg">
<path d="M12.125 10.3047H11.375C11.2755 10.3047 11.1802 10.3442 11.1098 10.4145C11.0395 10.4848 11 10.5802 11 10.6797V13.3047H3.5V5.80469H6.875C6.97446 5.80469 7.06984 5.76518 7.14016 5.69485C7.21049 5.62453 7.25 5.52914 7.25 5.42969V4.67969C7.25 4.58023 7.21049 4.48485 7.14016 4.41452C7.06984 4.3442 6.97446 4.30469 6.875 4.30469H3.125C2.82663 4.30469 2.54048 4.42321 2.3295 4.63419C2.11853 4.84517 2 5.13132 2 5.42969V13.6797C2 13.9781 2.11853 14.2642 2.3295 14.4752C2.54048 14.6862 2.82663 14.8047 3.125 14.8047H11.375C11.6734 14.8047 11.9595 14.6862 12.1705 14.4752C12.3815 14.2642 12.5 13.9781 12.5 13.6797V10.6797C12.5 10.5802 12.4605 10.4848 12.3902 10.4145C12.3198 10.3442 12.2245 10.3047 12.125 10.3047ZM13.4375 2.80469H10.4375C9.93664 2.80469 9.68633 3.41195 10.0391 3.76562L10.8765 4.60305L5.16406 10.3134C5.11162 10.3656 5.07001 10.4277 5.04162 10.4961C5.01323 10.5645 4.99862 10.6378 4.99862 10.7118C4.99862 10.7858 5.01323 10.8591 5.04162 10.9275C5.07001 10.9959 5.11162 11.058 5.16406 11.1102L5.69539 11.6406C5.74765 11.6931 5.80974 11.7347 5.87812 11.7631C5.94649 11.7915 6.0198 11.8061 6.09383 11.8061C6.16786 11.8061 6.24117 11.7915 6.30954 11.7631C6.37791 11.7347 6.44001 11.6931 6.49227 11.6406L12.2019 5.92938L13.0391 6.76562C13.3906 7.11719 14 6.87109 14 6.36719V3.36719C14 3.218 13.9407 3.07493 13.8352 2.96944C13.7298 2.86395 13.5867 2.80469 13.4375 2.80469V2.80469Z" fill="#595E64"/>
</svg>
