<svg width="32" height="32" viewBox="0 0 32 32" fill="none" xmlns="http://www.w3.org/2000/svg">
<g clip-path="url(#clip0_3300:25808)">
<circle cx="16" cy="16" r="12" fill="white"/>
<path fill-rule="evenodd" clip-rule="evenodd" d="M19.9674 21.5964C20.1118 21.7509 20.2573 21.9032 20.3993 22.0599C20.4177 22.0885 20.4275 22.1218 20.4275 22.1557C20.4535 22.3813 20.4647 23.1018 20.5031 23.324C20.5967 23.8573 20.9361 24.1731 21.4447 24.3039C21.7221 24.3761 22.2599 24.4009 22.5452 24.4482C22.5667 24.4482 22.596 24.4482 22.6084 24.4663C22.7155 24.5858 22.8181 24.7076 22.923 24.8282C22.923 24.8373 22.9174 24.8451 22.9151 24.853H22.4618H17.1946C17.1687 24.853 17.1224 24.8361 17.1213 24.8237C17.1099 24.7702 17.1146 24.7145 17.1348 24.6636C17.1714 24.618 17.2229 24.5868 17.2803 24.5756C17.516 24.5272 17.7539 24.4877 17.9907 24.4471C18.2783 24.3986 18.5669 24.3603 18.8534 24.305C19.4409 24.1922 19.7555 23.8156 19.8682 23.2383C19.9325 22.9 19.9359 22.0576 19.9382 21.7126V21.6156L19.9674 21.5964Z" fill="black"/>
<path fill-rule="evenodd" clip-rule="evenodd" d="M19.2151 23.2878C19.1982 23.1096 19.1937 22.9405 19.1621 22.7759C19.0888 22.3834 18.9175 22.0519 18.5295 21.8839C18.3795 21.8149 18.2171 21.7768 18.052 21.7718C17.887 21.7668 17.7226 21.7951 17.5687 21.855C17.4147 21.9149 17.2744 22.0051 17.1561 22.1203C17.0378 22.2355 16.9438 22.3733 16.8798 22.5255C16.8093 22.7236 16.7539 22.9268 16.714 23.1333C16.7073 23.1615 16.7061 23.192 16.7016 23.2247H12.4166C12.4076 23.1232 12.4076 23.0183 12.3884 22.9179C12.2869 22.3992 12.0265 21.9967 11.5066 21.8208C10.7477 21.5648 10.0283 22.0327 9.92795 22.8356C9.91668 22.9303 9.90991 23.0251 9.89976 23.1299C9.72949 23.1299 9.56147 23.1299 9.39233 23.1299C9.28858 23.1299 9.18371 23.1232 9.07997 23.122C8.79919 23.122 8.67627 23.0093 8.68078 22.7296C8.68078 22.5199 8.71461 22.309 8.73829 22.1004C8.75295 21.973 8.78002 21.8478 8.79919 21.7215C8.81084 21.6306 8.84823 21.545 8.90697 21.4746C8.96571 21.4043 9.04335 21.3522 9.13071 21.3246C9.2897 21.266 9.44983 21.2118 9.61221 21.1633C9.8088 21.1014 9.98185 20.981 10.1084 20.8183C10.677 20.1501 11.4295 19.6639 12.2723 19.42C12.6392 19.3199 13.021 19.2856 13.3999 19.3185C13.8329 19.3422 14.2671 19.3749 14.6978 19.4245C14.9899 19.4725 15.2659 19.5909 15.5018 19.7696C15.9529 20.074 16.3983 20.3785 16.8426 20.6864C16.961 20.7662 17.0991 20.8119 17.2418 20.8183C17.586 20.8357 17.9268 20.8952 18.2566 20.9953C18.4405 21.0496 18.6072 21.1506 18.7404 21.2885C18.9199 21.477 19.0882 21.6758 19.2445 21.8839C19.3562 22.0336 19.4336 22.2061 19.471 22.3891C19.5084 22.5722 19.505 22.7612 19.4609 22.9427C19.4482 23.0149 19.4196 23.0834 19.377 23.143C19.3345 23.2027 19.2792 23.2522 19.2151 23.2878V23.2878Z" fill="black"/>
<path fill-rule="evenodd" clip-rule="evenodd" d="M18.967 23.0297C18.9693 23.223 18.9139 23.4126 18.8081 23.5743C18.7023 23.7361 18.5507 23.8627 18.3727 23.9381C18.1947 24.0135 17.9983 24.0342 17.8085 23.9976C17.6186 23.961 17.444 23.8688 17.3067 23.7326C17.1695 23.5965 17.0758 23.4226 17.0377 23.2331C16.9996 23.0436 17.0187 22.847 17.0926 22.6684C17.1665 22.4898 17.2919 22.3372 17.4528 22.23C17.6137 22.1229 17.8028 22.066 17.9961 22.0667C18.252 22.0675 18.4973 22.169 18.6789 22.3492C18.8606 22.5294 18.9641 22.7738 18.967 23.0297Z" fill="black"/>
<path fill-rule="evenodd" clip-rule="evenodd" d="M12.1024 23.0263C12.1051 23.2193 12.0503 23.4088 11.945 23.5707C11.8397 23.7325 11.6886 23.8593 11.5109 23.935C11.3333 24.0107 11.1371 24.0319 10.9475 23.9958C10.7578 23.9597 10.5831 23.868 10.4457 23.7323C10.3083 23.5967 10.2144 23.4232 10.1758 23.234C10.1373 23.0448 10.1559 22.8484 10.2293 22.6698C10.3028 22.4912 10.4276 22.3385 10.5881 22.2311C10.7485 22.1237 10.9373 22.0664 11.1304 22.0667C11.3862 22.0663 11.6317 22.1669 11.8137 22.3466C11.9957 22.5263 12.0995 22.7705 12.1024 23.0263V23.0263Z" fill="black"/>
<path fill-rule="evenodd" clip-rule="evenodd" d="M10.8221 14.4304C11.3735 14.7225 11.5945 14.9627 11.7727 15.4577C12.3139 15.5039 12.809 15.6438 13.1495 16.1162L13.0672 16.079C12.7904 15.9306 12.4789 15.8589 12.1651 15.8715C11.8805 15.8843 11.6057 15.9786 11.3732 16.1431C11.1407 16.3076 10.9603 16.5355 10.8537 16.7996C10.7916 16.9383 10.7409 17.0826 10.6924 17.2258C10.6732 17.2777 10.6563 17.3318 10.6383 17.3859C10.6007 17.5176 10.5216 17.6336 10.4126 17.7166C10.3037 17.7995 10.1708 17.8449 10.0339 17.846C9.80834 17.8596 9.59408 17.8753 9.37419 17.8776C8.79684 17.8776 8.21951 17.8776 7.64103 17.8776H7.60268C7.63957 17.718 7.66519 17.5559 7.67935 17.3927C7.6974 16.5402 7.11554 16.1083 6.5303 15.973C6.01159 15.8524 5.57407 16.0215 5.22451 16.4184C5.08017 16.5831 4.77346 16.9823 4.63814 17.1491C4.6201 17.1706 4.59642 17.1886 4.56371 17.2202C4.55469 17.1074 4.54793 17.0082 4.54004 16.909L4.55807 16.918C4.5911 16.8793 4.61948 16.8369 4.64264 16.7917C4.81731 16.4133 5.05873 16.0695 5.35532 15.7768C5.44327 15.6979 5.48047 15.602 5.4162 15.5107C5.34538 15.4119 5.30608 15.294 5.30344 15.1724C5.30344 15.1487 5.26736 15.1194 5.24142 15.1047C5.167 15.0608 5.08694 15.0269 5.0159 14.9796C4.98186 14.9499 4.95156 14.9162 4.92568 14.8792C4.9674 14.8555 5.00687 14.8149 5.04972 14.8104C5.18278 14.798 5.31697 14.8003 5.45116 14.7969C5.48612 14.7969 5.52108 14.7969 5.55491 14.7969C5.56065 14.7681 5.57287 14.7411 5.59064 14.7178C5.60842 14.6944 5.63127 14.6755 5.65747 14.6623C5.68368 14.6492 5.71254 14.6422 5.74185 14.6418C5.77117 14.6415 5.80017 14.6479 5.82666 14.6605C6.19392 14.7619 6.57927 14.7796 6.95429 14.7123C7.13579 14.6785 7.32252 14.6851 7.50121 14.7315C7.86636 14.8183 8.23999 14.8644 8.6153 14.8691C8.91637 14.8815 9.03027 15.0585 9.06635 15.2976C9.07215 15.4067 9.0684 15.5161 9.05509 15.6246C9.05527 15.6307 9.05327 15.6367 9.04945 15.6415C8.90624 15.787 8.9829 15.955 9.00545 16.114C9.04036 16.4516 9.12276 16.7826 9.25017 17.0973C9.25872 17.1311 9.2794 17.1606 9.30831 17.1802C9.33722 17.1997 9.37231 17.2079 9.4069 17.2033C9.56166 17.1954 9.71673 17.1954 9.8715 17.2033C9.90359 17.2084 9.93644 17.2016 9.96386 17.1841C9.99128 17.1667 10.0114 17.1398 10.0203 17.1085C10.1212 16.8795 10.1874 16.6366 10.2165 16.388C10.2688 15.8872 10.2635 15.3821 10.2008 14.8826C10.1871 14.725 10.1356 14.573 10.0508 14.4394C10.0204 14.388 9.97476 14.3474 9.92014 14.3234C9.86552 14.2993 9.80472 14.293 9.74632 14.3052C9.6947 14.3146 9.64143 14.305 9.59633 14.2782C9.57322 14.2627 9.55546 14.2404 9.54548 14.2144C9.5355 14.1884 9.5338 14.1599 9.54058 14.1329C9.54737 14.1059 9.56231 14.0817 9.58339 14.0635C9.60447 14.0453 9.63065 14.034 9.65836 14.0312C9.82299 14.0042 9.92675 13.8858 10.0711 13.8125L9.86134 13.5261L9.71022 13.5903C9.68075 13.6053 9.64653 13.6081 9.61505 13.5979C9.58357 13.5878 9.55738 13.5656 9.54221 13.5362C9.49652 13.4766 9.46914 13.405 9.46333 13.3302C9.45753 13.2553 9.47355 13.1804 9.5095 13.1145C9.55799 13.0186 9.62227 12.9949 9.71474 13.0524C9.84329 13.1336 9.97299 13.2193 9.95945 13.4031C9.96192 13.4173 9.96814 13.4306 9.97749 13.4415L10.1951 13.7347L10.4793 13.6163L10.3665 13.4708L10.2988 13.5012C10.2301 13.5339 10.1703 13.5091 10.1568 13.4437C10.138 13.3555 10.135 13.2647 10.1478 13.1754C10.1489 13.1601 10.1544 13.1454 10.1636 13.1332C10.1728 13.1209 10.1853 13.1115 10.1997 13.1062C10.2141 13.1009 10.2297 13.0998 10.2446 13.103C10.2596 13.1063 10.2734 13.1138 10.2842 13.1246C10.3424 13.1696 10.3933 13.2232 10.4353 13.2836C10.4985 13.3693 10.5481 13.464 10.6101 13.5497C10.6329 13.5687 10.6616 13.5795 10.6913 13.5802C10.783 13.5824 10.8745 13.5903 10.9653 13.6039C10.9921 13.6062 11.0181 13.614 11.0417 13.6267C11.0654 13.6395 11.0862 13.657 11.1028 13.6782C11.1194 13.6993 11.1315 13.7237 11.1383 13.7497C11.1451 13.7757 11.1465 13.8028 11.1423 13.8294C11.1357 13.9686 11.1119 14.1065 11.0713 14.2398C11.051 14.3019 10.9676 14.3458 10.9089 14.3943C10.8815 14.4098 10.8524 14.4219 10.8221 14.4304V14.4304Z" fill="black"/>
<path fill-rule="evenodd" clip-rule="evenodd" d="M12.207 18.5632C12.0527 18.5634 11.8999 18.5327 11.7576 18.4728C11.6154 18.413 11.4866 18.3252 11.3788 18.2147C11.2711 18.1042 11.1866 17.9733 11.1303 17.8296C11.074 17.6859 11.0471 17.5323 11.0512 17.3781C11.0556 17.1488 11.1277 16.9261 11.2585 16.7377C11.3892 16.5494 11.5727 16.4039 11.7859 16.3196C11.999 16.2352 12.2324 16.2158 12.4566 16.2637C12.6808 16.3116 12.8858 16.4248 13.0458 16.5889C13.2059 16.753 13.3139 16.9608 13.3562 17.1861C13.3985 17.4115 13.3732 17.6443 13.2836 17.8553C13.1939 18.0663 13.0439 18.246 12.8523 18.372C12.6608 18.498 12.4363 18.5645 12.207 18.5632V18.5632ZM11.4425 17.413C11.4418 17.567 11.4869 17.7176 11.572 17.8459C11.6571 17.9742 11.7784 18.0743 11.9205 18.1335C12.0626 18.1928 12.2191 18.2084 12.3702 18.1786C12.5212 18.1487 12.6599 18.0746 12.7688 17.9658C12.8776 17.8569 12.9517 17.7182 12.9816 17.5671C13.0114 17.4161 12.9958 17.2596 12.9366 17.1175C12.8773 16.9754 12.7772 16.8541 12.6489 16.769C12.5207 16.6839 12.37 16.6388 12.216 16.6395C12.0113 16.6409 11.8154 16.7229 11.6707 16.8677C11.5259 17.0124 11.4439 17.2083 11.4425 17.413V17.413Z" fill="black"/>
<path fill-rule="evenodd" clip-rule="evenodd" d="M6.22397 18.5632C5.91593 18.5632 5.62051 18.4408 5.40269 18.223C5.18487 18.0052 5.0625 17.7097 5.0625 17.4017C5.0625 17.0937 5.18487 16.7982 5.40269 16.5804C5.62051 16.3626 5.91593 16.2402 6.22397 16.2402C6.53201 16.2402 6.82743 16.3626 7.04525 16.5804C7.26306 16.7982 7.38544 17.0937 7.38544 17.4017C7.38544 17.7097 7.26306 18.0052 7.04525 18.223C6.82743 18.4408 6.53201 18.5632 6.22397 18.5632ZM7.0009 17.4197C7.0024 17.3169 6.9834 17.2148 6.94498 17.1195C6.90657 17.0241 6.84951 16.9373 6.77717 16.8642C6.70483 16.7912 6.61865 16.7332 6.52366 16.6939C6.42867 16.6545 6.32679 16.6344 6.22397 16.6349C6.11937 16.6309 6.01505 16.6481 5.91724 16.6854C5.81943 16.7226 5.73015 16.7793 5.65474 16.8519C5.57933 16.9245 5.51936 17.0115 5.47838 17.1078C5.43741 17.2041 5.41629 17.3077 5.41629 17.4124C5.41629 17.5171 5.43741 17.6207 5.47838 17.717C5.51936 17.8133 5.57933 17.9004 5.65474 17.973C5.73015 18.0456 5.81943 18.1022 5.91724 18.1395C6.01505 18.1767 6.11937 18.1939 6.22397 18.1899C6.42777 18.1899 6.62334 18.1095 6.76818 17.9661C6.91303 17.8228 6.99546 17.628 6.99754 17.4243L7.0009 17.4197Z" fill="black"/>
<path fill-rule="evenodd" clip-rule="evenodd" d="M11.4424 17.4131C11.4433 17.2595 11.4897 17.1096 11.5757 16.9824C11.6617 16.8552 11.7835 16.7563 11.9257 16.6983C12.0678 16.6402 12.224 16.6256 12.3745 16.6563C12.525 16.6869 12.663 16.7615 12.7711 16.8706C12.8792 16.9796 12.9526 17.1183 12.9819 17.269C13.0113 17.4198 12.9953 17.5758 12.936 17.7175C12.8768 17.8591 12.7768 17.9801 12.6488 18.065C12.5209 18.1499 12.3706 18.1949 12.2171 18.1945C12.1149 18.1941 12.0138 18.1735 11.9196 18.134C11.8253 18.0945 11.7398 18.0368 11.6679 17.9642C11.596 17.8917 11.539 17.8056 11.5003 17.7111C11.4616 17.6165 11.4419 17.5152 11.4424 17.4131Z" fill="white"/>
<path fill-rule="evenodd" clip-rule="evenodd" d="M6.9978 17.4242C6.9981 17.629 6.91718 17.8255 6.77281 17.9707C6.62844 18.1159 6.43238 18.198 6.22761 18.1989C6.12302 18.2029 6.01869 18.1857 5.92089 18.1484C5.82308 18.1111 5.7338 18.0545 5.65839 17.9819C5.58298 17.9093 5.52299 17.8223 5.48202 17.726C5.44104 17.6296 5.41992 17.5261 5.41992 17.4214C5.41992 17.3167 5.44104 17.2131 5.48202 17.1168C5.52299 17.0205 5.58298 16.9334 5.65839 16.8608C5.7338 16.7882 5.82308 16.7316 5.92089 16.6943C6.01869 16.6571 6.12302 16.6399 6.22761 16.6439C6.32949 16.6443 6.43026 16.6649 6.52417 16.7044C6.61807 16.7439 6.70326 16.8015 6.77482 16.874C6.84638 16.9465 6.9029 17.0325 6.94117 17.1269C6.97943 17.2213 6.99869 17.3223 6.9978 17.4242V17.4242Z" fill="white"/>
<path fill-rule="evenodd" clip-rule="evenodd" d="M20.4633 18.2767C20.2919 18.1098 20.1317 17.9553 19.9761 17.7963C19.9592 17.7794 19.9592 17.7422 19.957 17.714C19.9434 17.5584 19.9355 17.4039 19.9175 17.2494C19.9057 17.1432 19.8719 17.0407 19.8183 16.9483C19.7647 16.8559 19.6925 16.7756 19.6063 16.7126C19.2838 16.4706 18.956 16.2353 18.623 16.0067C18.1455 15.6993 17.6988 15.3466 17.289 14.9535C16.9484 14.6208 16.6797 14.2216 16.4997 13.7808C16.3363 13.3439 16.2935 12.871 16.3756 12.4118C16.4681 11.8559 16.6011 11.3056 16.7139 10.7542C16.9281 9.73936 17.263 8.76959 17.5844 7.79193C17.6058 7.72653 17.6476 7.7333 17.6972 7.7333C18.6602 7.7333 19.6232 7.7333 20.5862 7.7333C21.1218 7.7333 21.6563 7.7333 22.1919 7.7333C22.4017 7.7333 22.6103 7.73894 22.82 7.7333C22.8403 7.73078 22.8609 7.73583 22.8777 7.74747C22.8946 7.75912 22.9065 7.77655 22.9114 7.79644C23.3354 8.92408 23.7413 10.0607 24.004 11.2414C24.1404 11.8145 24.2208 12.3994 24.2442 12.9881C24.2649 13.4792 24.1044 13.9608 23.7932 14.3412C23.1716 15.1268 22.4062 15.7869 21.5379 16.2864C21.3372 16.3992 21.1308 16.5119 20.9425 16.6484C20.812 16.7426 20.7054 16.866 20.631 17.0087C20.5566 17.1514 20.5165 17.3095 20.514 17.4704C20.4994 17.7174 20.4892 17.9654 20.4768 18.2135C20.4666 18.2372 20.4655 18.2485 20.4633 18.2767Z" fill="black"/>
<path d="M16 0C12.8355 0 9.74205 0.938384 7.11087 2.69649C4.47968 4.45459 2.42893 6.95345 1.21793 9.87706C0.00693125 12.8007 -0.30992 16.0177 0.307443 19.1214C0.924806 22.2251 2.44865 25.0761 4.68629 27.3137C6.92393 29.5513 9.77487 31.0752 12.8786 31.6926C15.9823 32.3099 19.1993 31.9931 22.1229 30.7821C25.0465 29.5711 27.5454 27.5203 29.3035 24.8891C31.0616 22.2579 32 19.1645 32 16C32 11.7565 30.3143 7.68687 27.3137 4.68629C24.3131 1.68571 20.2434 0 16 0V0ZM16 27.4556C13.7343 27.4556 11.5195 26.7838 9.6356 25.525C7.75173 24.2662 6.28342 22.4771 5.41637 20.3839C4.54932 18.2906 4.32247 15.9873 4.76449 13.7651C5.20651 11.5429 6.29753 9.50174 7.89963 7.89964C9.50173 6.29754 11.5429 5.2065 13.7651 4.76448C15.9873 4.32246 18.2906 4.54932 20.3839 5.41637C22.4771 6.28342 24.2662 7.75172 25.525 9.63559C26.7838 11.5195 27.4556 13.7343 27.4556 16C27.4564 17.5048 27.1606 18.995 26.5852 20.3854C26.0098 21.7759 25.1661 23.0393 24.1023 24.1036C23.0384 25.1679 21.7753 26.0121 20.3851 26.588C18.9949 27.1639 17.5048 27.4603 16 27.4601V27.4556Z" fill="#E60012"/>
<path d="M7.37248 5.31078L5.27539 7.42847L24.3314 26.2991L26.4285 24.1814L7.37248 5.31078Z" fill="#E60012"/>
</g>
<defs>
<clipPath id="clip0_3300:25808">
<rect width="32" height="32" fill="white"/>
</clipPath>
</defs>
</svg>
