<svg xmlns:xlink="http://www.w3.org/1999/xlink" xmlns="http://www.w3.org/2000/svg" width="20" height="20" fill="none" viewBox="0 0 18 19" class="AccuIcon-f9f274a3-root HistoryKeyword-a51bc99d-icon"><g clip-path="url(#history_svg__a)" fill="#E7ECF3"><path fill="#E7ECF3" d="M9 .5a8.953 8.953 0 0 0-6.718 3.03L0 1.25V7.25h6.001L3.885 5.134C5.119 3.682 6.943 2.75 9 2.75a6.75 6.75 0 0 1 6.75 6.75 6.75 6.75 0 0 1-11.524 4.774l-1.59 1.59A9 9 0 0 0 18 9.5 9 9 0 0 0 9.001.499Zm-.749 3.751v6.001h4.5v-1.5H9.752v-4.5h-1.5Z"></path></g><defs><clipPath id="history_svg__a"><path fill="#fff" d="M0 .5h18v18H0z"></path></clipPath></defs></svg>