<svg width="20" height="20" viewBox="0 0 20 20" fill="none" xmlns="http://www.w3.org/2000/svg">
<path d="M8.72917 19.6C3.05333 11.3683 2 10.5242 2 7.5C2 3.3575 5.3575 0 9.5 0C13.6425 0 17 3.3575 17 7.5C17 10.5242 15.9467 11.3667 10.2708 19.5967C10.1846 19.7208 10.0697 19.8223 9.93589 19.8925C9.80206 19.9627 9.65325 19.9995 9.50212 19.9998C9.35099 20.0001 9.20202 19.964 9.06788 19.8944C8.93374 19.8247 8.8184 19.7238 8.73167 19.6L8.73 19.5967L8.72917 19.6ZM9.5 10.625C10.3288 10.625 11.1237 10.2958 11.7097 9.70971C12.2958 9.12366 12.625 8.3288 12.625 7.5C12.625 6.6712 12.2958 5.87634 11.7097 5.29029C11.1237 4.70424 10.3288 4.375 9.5 4.375C8.6712 4.375 7.87634 4.70424 7.29029 5.29029C6.70424 5.87634 6.375 6.6712 6.375 7.5C6.375 8.3288 6.70424 9.12366 7.29029 9.70971C7.87634 10.2958 8.6712 10.625 9.5 10.625Z" fill="white"/>
</svg>
