<svg width="16" height="16" viewBox="0 0 16 16" fill="none" xmlns="http://www.w3.org/2000/svg">
<path d="M7.9998 11.333C7.82961 11.3321 7.66174 11.2934 7.50838 11.2196C7.35501 11.1458 7.22 11.0388 7.11314 10.9063L4.30647 7.50634C4.14246 7.30165 4.03926 7.05501 4.00861 6.79452C3.97797 6.53403 4.02111 6.27017 4.13314 6.03301C4.22399 5.82689 4.37225 5.65128 4.56021 5.52716C4.74818 5.40303 4.9679 5.33563 5.19314 5.33301H10.8065C11.0317 5.33563 11.2514 5.40303 11.4394 5.52716C11.6274 5.65128 11.7756 5.82689 11.8665 6.03301C11.9785 6.27017 12.0216 6.53403 11.991 6.79452C11.9603 7.05501 11.8571 7.30165 11.6931 7.50634L8.88647 10.9063C8.7796 11.0388 8.64459 11.1458 8.49123 11.2196C8.33786 11.2934 8.17 11.3321 7.9998 11.333Z" fill="white"/>
</svg>
