<svg xmlns:xlink="http://www.w3.org/1999/xlink" xmlns="http://www.w3.org/2000/svg" width="120" height="121" fill="none" viewBox="0 0 120 121"><rect width="8" height="44.944" x="73.675" y="82.832" fill="#E4E9EF" rx="4" transform="rotate(-45 73.675 82.832)"></rect><path fill="#EFF4FB" d="M11.98 89.008c.416-1.446 2.467-1.446 2.883 0l.916 3.184a1.5 1.5 0 0 0 .797.94l3.42 1.627c1.14.542 1.14 2.166 0 2.709l-3.42 1.626a1.5 1.5 0 0 0-.797.94l-.916 3.184c-.416 1.447-2.467 1.447-2.883 0l-.916-3.184a1.5 1.5 0 0 0-.797-.94l-3.42-1.626c-1.14-.543-1.14-2.167 0-2.71l3.42-1.626a1.5 1.5 0 0 0 .797-.94l.916-3.183ZM103.98 6.508c.416-1.446 2.467-1.446 2.883 0l.916 3.184a1.5 1.5 0 0 0 .797.94l3.42 1.627c1.141.542 1.141 2.166 0 2.709l-3.42 1.627a1.5 1.5 0 0 0-.797.94l-.916 3.183c-.416 1.447-2.467 1.447-2.883 0l-.916-3.184a1.5 1.5 0 0 0-.797-.94l-3.42-1.626c-1.14-.543-1.14-2.167 0-2.71l3.42-1.626a1.5 1.5 0 0 0 .797-.94l.916-3.184Z"></path><path stroke="#EFF4FB" stroke-width="11.321px" d="M95.627 52.872c0 18.324-15.807 33.712-35.983 33.712-20.177 0-35.984-15.388-35.984-33.712 0-18.323 15.807-33.712 35.984-33.712 20.176 0 35.983 15.389 35.983 33.712Z" fill="none"></path><path fill="#F5FAFF" fill-rule="evenodd" d="M92.379 53.195c0 16.952-14.636 30.695-32.69 30.695S27 70.147 27 53.195C27 36.242 41.635 22.5 59.69 22.5c18.053 0 32.689 13.742 32.689 30.695Z" clip-rule="evenodd"></path><mask id="table-empty-placeholder_svg__a" width="66" height="62" x="27" y="22" maskUnits="userSpaceOnUse" style="mask-type: luminance;" fill="none"><path fill="#FFFFFF" fill-rule="evenodd" d="M92.379 53.195c0 16.952-14.636 30.695-32.69 30.695S27 70.147 27 53.195C27 36.242 41.635 22.5 59.69 22.5c18.053 0 32.689 13.742 32.689 30.695Z" clip-rule="evenodd"></path></mask><g fill-rule="evenodd" clip-rule="evenodd" mask="url(#table-empty-placeholder_svg__a)" fill="none"><path fill="#FFFFFF" d="M41.198 37.632c-1.856 0-3.36 1.412-3.36 3.155v48.975c0 1.743 1.504 3.155 3.36 3.155H78.18c1.856 0 3.36-1.412 3.36-3.155V40.787c0-1.743-1.504-3.155-3.36-3.155H41.198Z"></path><path fill="#EFF4FB" d="M42.783 42.995c0-.093.06-.15.093-.15h33.497c.033 0 .093.057.093.15V91.96c0 .094-.06.15-.093.15H42.876c-.033 0-.093-.056-.093-.15V42.995Zm33.59-1.77H42.876c-.988 0-1.792.794-1.792 1.77V91.96c0 .976.804 1.77 1.792 1.77h33.497c.988 0 1.791-.794 1.791-1.77V42.995c0-.976-.803-1.77-1.791-1.77Z"></path><path fill="#EFF4FB" d="M60.441 58.073c-1.142 0-2.07.873-2.07 1.944v2.589c0 1.072.928 1.944 2.07 1.944s2.07-.872 2.07-1.944v-2.589c0-1.072-.928-1.944-2.07-1.944ZM64.06 67.656a1.043 1.043 0 0 0-.56-.16 1.02 1.02 0 0 0-.83.415 2.738 2.738 0 0 1-2.23 1.126 2.74 2.74 0 0 1-2.23-1.127 1.017 1.017 0 0 0-.83-.414c-.2 0-.393.055-.558.16-.457.288-.58.873-.272 1.303.877 1.224 2.332 1.956 3.89 1.956 1.559 0 3.014-.732 3.891-1.957.307-.43.185-1.014-.272-1.302ZM54.26 55.444c-1.281 0-2.324.979-2.324 2.183 0 1.203 1.043 2.183 2.325 2.183 1.281 0 2.324-.98 2.324-2.183 0-1.204-1.043-2.183-2.324-2.183ZM66.435 55.444c-1.282 0-2.325.979-2.325 2.183 0 1.203 1.043 2.183 2.325 2.183 1.281 0 2.324-.98 2.324-2.183 0-1.204-1.043-2.183-2.324-2.183Z"></path></g><path fill="#F5FAFF" d="M11.045 19.06c.42-1.413 2.49-1.413 2.91 0l.925 3.11c.12.403.413.737.805.918l3.451 1.589a1.445 1.445 0 0 1 0 2.646l-3.451 1.59a1.48 1.48 0 0 0-.805.917l-.925 3.11c-.42 1.413-2.49 1.413-2.91 0l-.925-3.11a1.48 1.48 0 0 0-.805-.918l-3.451-1.589a1.445 1.445 0 0 1 0-2.646l3.451-1.59a1.48 1.48 0 0 0 .805-.917l.925-3.11Z"></path><circle cx="112" cy="56" r="3" fill="#EFF4FB"></circle><circle cx="36" cy="95" r="3" fill="#EFF4FB"></circle></svg>