<svg xmlns:xlink="http://www.w3.org/1999/xlink" xmlns="http://www.w3.org/2000/svg"   fill="none" viewBox="0 0 24 24" class="AccuIcon-f9f274a3-root" style="--icon-size: 32px;" width="32"  height="32" ><path fill="#00A2F2" fill-rule="evenodd" d="M2 12C2 6.478 6.478 2 12 2s10 4.478 10 10-4.478 10-10 10S2 17.522 2 12Zm9.618 3.252 4.701-6.518a.18.18 0 0 0-.145-.283h-1.047a.714.714 0 0 0-.578.297l-3.509 4.866-1.59-2.206a.71.71 0 0 0-.577-.296H7.826a.18.18 0 0 0-.145.283l2.783 3.857a.71.71 0 0 0 1.154 0Z" clip-rule="evenodd"></path></svg>