<svg xmlns:xlink="http://www.w3.org/1999/xlink" xmlns="http://www.w3.org/2000/svg" width="16" height="16" fill="none" viewBox="0 0 24 24" class="AccuIcon-f9f274a3-root NoticeCard-fd9093e6-icon"><path fill="#B3E5FC" d="M2 3h9.236v7.113c0 2.618-.545 4.692-1.635 6.22-1.09 1.515-2.951 2.845-5.584 3.992L2 16.545c1.642-.764 2.767-1.52 3.376-2.271.623-.764.97-1.663 1.04-2.696H2V3Zm10.764 0H22v7.113c0 2.618-.545 4.692-1.635 6.22-1.09 1.515-2.951 2.845-5.584 3.992l-2.017-3.78c1.642-.764 2.768-1.52 3.376-2.271.623-.764.97-1.663 1.04-2.696h-4.416V3Z"></path></svg>