<svg xmlns:xlink="http://www.w3.org/1999/xlink" xmlns="http://www.w3.org/2000/svg"   fill="none" viewBox="0 0 24 24" class="AccuIcon-f9f274a3-root" width="24"  height="24" ><path fill="#959BA1" fill-rule="evenodd" d="M17.25 15.86a.61.61 0 0 1-.535.582l-1.916.2V6.412a.896.896 0 0 0-.534-.818l-5.746-2.54 8.124-.849a.615.615 0 0 1 .607.613V15.86ZM17.741.292 5.305 1.59a.896.896 0 0 0-.805.89V18.7c0 .353.21.673.534.817l8.5 3.757a.91.91 0 0 0 .856-.067.896.896 0 0 0 .41-.75v-4.015l2.968-.31c.71-.088 1.281-.724 1.281-1.434V1.455c0-.718-.585-1.24-1.308-1.163Z" clip-rule="evenodd"></path></svg>