<svg xmlns:xlink="http://www.w3.org/1999/xlink" xmlns="http://www.w3.org/2000/svg"   fill="none" viewBox="0 0 24 24" class="AccuIcon-f9f274a3-root" width="24"  height="24" ><path fill="#959BA1" d="M4.163 6.903a1.8 1.8 0 0 0-1.46 2.085l.625 3.545a1.8 1.8 0 1 1 .625 3.546l.626 3.545a1.8 1.8 0 0 0 2.085 1.46l14.18-2.5a1.8 1.8 0 0 0 1.461-2.086l-.625-3.545a1.8 1.8 0 1 1-.625-3.545l-.625-3.546a1.8 1.8 0 0 0-2.086-1.46l-14.18 2.5Zm10.662.862 1.564 1.095-6.206 8.862-1.564-1.095 6.206-8.862Zm-5.923 1.08a1.593 1.593 0 1 1 .554 3.138 1.593 1.593 0 0 1-.554-3.137Zm6.651 4.658a1.593 1.593 0 1 1 .554 3.138 1.593 1.593 0 0 1-.554-3.138Z"></path></svg>