<svg xmlns:xlink="http://www.w3.org/1999/xlink" xmlns="http://www.w3.org/2000/svg"   fill="none" viewBox="0 0 24 24" class="AccuIcon-f9f274a3-root" width="24"  height="24" ><path fill="#959BA1" d="m21.753 10.488-2.236-.667a7.772 7.772 0 0 0-.634-1.555l1.095-2.048a.407.407 0 0 0-.074-.48L18.31 4.135a.407.407 0 0 0-.48-.074L15.793 5.15a7.754 7.754 0 0 0-1.574-.667l-.668-2.21A.407.407 0 0 0 13.158 2h-2.256a.407.407 0 0 0-.387.287l-.667 2.202a7.76 7.76 0 0 0-1.589.668L6.257 4.075a.407.407 0 0 0-.48.074L4.155 5.73a.407.407 0 0 0-.073.48l1.081 2.003c-.28.5-.504 1.031-.667 1.581l-2.21.668a.407.407 0 0 0-.286.387v2.255a.407.407 0 0 0 .287.387l2.222.668c.165.54.389 1.062.667 1.554L4.082 17.81a.407.407 0 0 0 .073.48l1.595 1.595a.407.407 0 0 0 .48.074l2.063-1.101a7.776 7.776 0 0 0 1.535.627l.667 2.249a.407.407 0 0 0 .387.287h2.256a.407.407 0 0 0 .387-.287l.667-2.256a7.763 7.763 0 0 0 1.521-.627l2.076 1.108a.407.407 0 0 0 .48-.074l1.595-1.595a.407.407 0 0 0 .073-.48L18.83 15.74c.265-.485.478-.997.634-1.528l2.249-.667a.407.407 0 0 0 .287-.387v-2.276a.406.406 0 0 0-.247-.394ZM12.03 15.68a3.67 3.67 0 1 1 0-7.34 3.67 3.67 0 0 1 0 7.34Z"></path></svg>